<?xml version="1.0" encoding="UTF-8" standalone="no"?>
<!DOCTYPE svg PUBLIC "-//W3C//DTD SVG 1.1//EN" "http://www.w3.org/Graphics/SVG/1.1/DTD/svg11.dtd">
<svg width="100%" height="100%" viewBox="0 0 448 512" version="1.1" xmlns="http://www.w3.org/2000/svg" xmlns:xlink="http://www.w3.org/1999/xlink" xml:space="preserve" xmlns:serif="http://www.serif.com/" style="fill-rule:evenodd;clip-rule:evenodd;stroke-linejoin:round;stroke-miterlimit:2;">
    <path d="M432,256C432,273.69 417.67,288.01 400,288.01L256,288.01L256,432.01C256,449.7 241.67,464 224,464C206.33,464 192,449.7 192,432.01L192,288.01L48,288.01C30.33,288.01 16,273.69 16,256C16,238.31 30.33,224.01 48,224.01L192,224.01L192,80.01C192,62.32 206.33,48 224,48C241.67,48 256,62.32 256,80.01L256,224.01L400,224.01C417.7,224 432,238.3 432,256Z" style="fill:rgb(49,71,95);fill-rule:nonzero;"/>
</svg>
